<svg width="228" height="26" viewBox="0 0 228 26" fill="none" xmlns="http://www.w3.org/2000/svg">
<path d="M128.312 23.3363L123.361 9.62131C123.286 9.41202 123.242 9.1931 123.23 8.97131C123.244 8.65411 123.381 8.35467 123.612 8.13631C123.843 7.91796 124.15 7.79782 124.468 7.80132C124.755 7.79821 125.034 7.89329 125.26 8.07069C125.485 8.2481 125.642 8.49713 125.706 8.77632L129.81 20.9313L133.914 8.71131C133.972 8.44141 134.119 8.19873 134.332 8.022C134.544 7.84527 134.81 7.74468 135.086 7.73631H135.217C135.504 7.73321 135.783 7.82829 136.008 8.00569C136.233 8.1831 136.391 8.43212 136.454 8.71131L140.558 20.9313L144.728 8.71131C144.782 8.44495 144.93 8.2068 145.145 8.03991C145.36 7.87301 145.628 7.78839 145.9 7.80132C146.051 7.79349 146.201 7.81622 146.343 7.86815C146.484 7.92007 146.614 8.0001 146.723 8.10341C146.833 8.20671 146.921 8.33112 146.981 8.46913C147.041 8.60714 147.072 8.75588 147.073 8.90632C147.061 9.12811 147.017 9.34704 146.942 9.55632L141.992 23.3363C141.915 23.6322 141.749 23.8972 141.516 24.0951C141.283 24.293 140.994 24.4139 140.689 24.4413H140.624C140.31 24.4426 140.006 24.3319 139.767 24.1292C139.528 23.9266 139.37 23.6453 139.321 23.3363L135.282 11.5063L131.178 23.3363C131.12 23.6411 130.958 23.9168 130.722 24.1178C130.485 24.3188 130.186 24.4329 129.875 24.4413H129.81C129.471 24.4578 129.136 24.3568 128.863 24.1554C128.59 23.954 128.395 23.6646 128.312 23.3363Z" fill="#6D6E70"/>
<path d="M147.724 19.5013C147.724 15.9913 150.525 14.1713 154.694 14.1713C156.394 14.1376 158.088 14.3791 159.71 14.8863V14.3013C159.71 11.3763 157.886 9.88132 154.89 9.88132C153.431 9.89221 151.99 10.2019 150.656 10.7913C150.51 10.8446 150.355 10.8668 150.2 10.8563C150.062 10.8581 149.926 10.8324 149.799 10.7807C149.671 10.7291 149.556 10.6525 149.459 10.5556C149.362 10.4587 149.285 10.3433 149.233 10.2164C149.181 10.0894 149.156 9.95338 149.157 9.81632C149.143 9.6049 149.199 9.39473 149.317 9.21843C149.435 9.04213 149.608 8.90956 149.809 8.84132C151.487 8.08874 153.31 7.71158 155.15 7.73631C157.43 7.73631 159.189 8.32132 160.427 9.55632C161.534 10.6613 162.121 12.2213 162.121 14.3013V23.2063C162.127 23.3616 162.101 23.5165 162.044 23.6612C161.987 23.8059 161.901 23.9374 161.791 24.0473C161.681 24.1572 161.549 24.2431 161.404 24.2997C161.259 24.3564 161.104 24.3824 160.948 24.3763C160.798 24.3841 160.647 24.3614 160.506 24.3095C160.364 24.2576 160.235 24.1775 160.125 24.0742C160.015 23.9709 159.928 23.8465 159.868 23.7085C159.808 23.5705 159.776 23.4218 159.776 23.2713V21.7763C159.098 22.6807 158.21 23.4074 157.189 23.8943C156.168 24.3811 155.044 24.6134 153.913 24.5713C150.786 24.5063 147.724 22.8163 147.724 19.5013ZM159.71 18.2013V16.6413C158.166 16.185 156.566 15.9444 154.955 15.9263C151.893 15.9263 150.2 17.2263 150.2 19.3063V19.3713C150.2 21.3863 152.089 22.6213 154.304 22.6213C157.235 22.6213 159.71 20.8013 159.71 18.2013Z" fill="#6D6E70"/>
<path d="M165.964 19.8913V10.0763H164.661C164.385 10.0763 164.12 9.96675 163.924 9.77171C163.729 9.57668 163.619 9.31214 163.619 9.03632C163.619 8.76049 163.729 8.49596 163.924 8.30092C164.12 8.10588 164.385 7.99631 164.661 7.99631H165.964V4.16132C165.961 3.84379 166.081 3.53733 166.3 3.3068C166.519 3.07628 166.819 2.93981 167.137 2.92632C167.462 2.93718 167.77 3.07078 168 3.30008C168.23 3.52937 168.364 3.83723 168.374 4.16132V7.99631H172.609C172.89 8.00156 173.159 8.11096 173.364 8.30318C173.568 8.49541 173.694 8.75673 173.716 9.03632C173.705 9.31988 173.583 9.58773 173.376 9.78223C173.168 9.97672 172.893 10.0823 172.609 10.0763H168.374V19.5663C168.374 21.5163 169.482 22.2963 171.11 22.2963C171.615 22.2779 172.116 22.2126 172.609 22.1013C172.746 22.0996 172.882 22.1253 173.01 22.1769C173.137 22.2286 173.253 22.3051 173.35 22.402C173.447 22.499 173.524 22.6143 173.575 22.7413C173.627 22.8682 173.653 23.0043 173.651 23.1413C173.657 23.3527 173.589 23.5595 173.458 23.7258C173.327 23.8921 173.142 24.0073 172.934 24.0513C172.166 24.3515 171.349 24.5058 170.524 24.5063C167.918 24.4413 165.964 23.2063 165.964 19.8913Z" fill="#6D6E70"/>
<path d="M174.433 16.1213C174.421 14.4601 174.9 12.8323 175.81 11.441C176.72 10.0498 178.021 8.95666 179.549 8.29807C181.078 7.63948 182.767 7.44459 184.405 7.73771C186.044 8.03083 187.56 8.79898 188.764 9.94632C188.89 10.0477 188.991 10.1767 189.059 10.3232C189.126 10.4698 189.159 10.63 189.155 10.7913C189.156 10.9452 189.126 11.0976 189.067 11.2399C189.009 11.3821 188.922 11.5114 188.813 11.6202C188.704 11.729 188.575 11.8151 188.432 11.8737C188.289 11.9322 188.137 11.962 187.982 11.9613C187.702 11.955 187.429 11.8644 187.201 11.7013C186.028 10.6613 184.725 9.75133 182.771 9.75133C179.449 9.75133 176.973 12.5463 176.973 16.0563V16.1213C176.973 19.6313 179.579 22.4263 182.966 22.4263C184.681 22.3853 186.314 21.687 187.526 20.4763C187.715 20.2802 187.971 20.1638 188.243 20.1513C188.534 20.1598 188.811 20.279 189.017 20.4844C189.223 20.6898 189.342 20.966 189.35 21.2563C189.34 21.5472 189.225 21.8244 189.025 22.0363C188.246 22.8769 187.298 23.5433 186.242 23.9915C185.187 24.4396 184.048 24.6594 182.901 24.6363C180.647 24.6267 178.489 23.7244 176.901 22.1278C175.313 20.5311 174.425 18.3707 174.433 16.1213Z" fill="#6D6E70"/>
<path d="M191.565 2.34133C191.56 2.18008 191.587 2.01943 191.645 1.8689C191.704 1.71838 191.792 1.58105 191.904 1.46511C192.016 1.34917 192.151 1.25699 192.3 1.19403C192.449 1.13107 192.609 1.09863 192.77 1.09863C192.932 1.09863 193.092 1.13107 193.241 1.19403C193.39 1.25699 193.525 1.34917 193.637 1.46511C193.749 1.58105 193.837 1.71838 193.896 1.8689C193.954 2.01943 193.981 2.18008 193.976 2.34133V10.7913C194.527 9.79866 195.341 8.97642 196.329 8.41464C197.317 7.85287 198.441 7.57323 199.578 7.60633C203.486 7.60633 205.832 10.2713 205.832 14.1063V23.1413C205.839 23.3 205.814 23.4585 205.759 23.6073C205.703 23.7561 205.618 23.8923 205.508 24.0076C205.399 24.1229 205.267 24.215 205.121 24.2783C204.975 24.3417 204.818 24.375 204.659 24.3763C204.495 24.3818 204.332 24.3537 204.179 24.2936C204.026 24.2335 203.888 24.1427 203.772 24.0269C203.655 23.9111 203.565 23.7727 203.504 23.6204C203.444 23.4681 203.416 23.305 203.421 23.1413V14.7563C203.421 11.7663 201.793 9.88133 198.926 9.88133C196.125 9.88133 194.041 11.8963 194.041 14.9513V23.2063C194.048 23.365 194.023 23.5235 193.968 23.6723C193.912 23.8211 193.827 23.9573 193.718 24.0726C193.608 24.1879 193.477 24.28 193.331 24.3433C193.185 24.4067 193.027 24.44 192.868 24.4413C192.704 24.4469 192.541 24.4187 192.388 24.3586C192.235 24.2985 192.097 24.2077 191.981 24.0919C191.865 23.9761 191.774 23.8377 191.713 23.6854C191.653 23.5331 191.625 23.37 191.63 23.2063V2.34133H191.565Z" fill="#6D6E70"/>
<path d="M40.825 20.7364L47.4696 15.0814C50.4661 12.5464 51.5084 11.1814 51.5084 9.23144C51.5084 7.08644 50.0101 5.85143 47.9907 5.85143C46.2319 5.85143 45.0593 6.63144 43.6913 8.25644C43.5319 8.44513 43.3321 8.59567 43.1066 8.69693C42.8811 8.79819 42.6356 8.84758 42.3884 8.84144C42.1572 8.84238 41.9281 8.79763 41.7142 8.70976C41.5004 8.6219 41.3061 8.49267 41.1426 8.32952C40.9791 8.16636 40.8496 7.97252 40.7615 7.75916C40.6735 7.54581 40.6286 7.31716 40.6296 7.08643C40.6231 6.65207 40.7867 6.23234 41.0856 5.91644C41.8908 4.78044 42.9686 3.86397 44.2204 3.2508C45.4722 2.63763 46.8581 2.34733 48.2513 2.40644C52.4856 2.40644 55.417 5.00644 55.417 8.84144V8.90644C55.417 12.2864 53.593 14.1714 49.7496 17.2914L45.3199 20.9964H54.1141C54.337 20.9949 54.5579 21.0375 54.7641 21.1219C54.9703 21.2063 55.1577 21.3307 55.3153 21.488C55.4728 21.6452 55.5975 21.8321 55.6821 22.0379C55.7667 22.2436 55.8094 22.4641 55.8079 22.6864C55.8149 22.9103 55.7759 23.1332 55.6933 23.3414C55.6107 23.5496 55.4862 23.7387 55.3275 23.8971C55.1688 24.0555 54.9792 24.1797 54.7706 24.2621C54.5619 24.3446 54.3385 24.3835 54.1141 24.3764H41.8021C40.6296 24.3764 39.7827 23.7264 39.7827 22.5564C39.8163 22.1965 39.9267 21.8478 40.1065 21.5339C40.2863 21.22 40.5313 20.9481 40.825 20.7364Z" fill="#404041"/>
<path d="M67.7941 19.5014H58.0879C57.8419 19.5141 57.596 19.4762 57.3654 19.3901C57.1348 19.304 56.9243 19.1715 56.7472 19.0008C56.57 18.8301 56.4299 18.6249 56.3356 18.398C56.2412 18.171 56.1946 17.9271 56.1987 17.6814C56.2086 16.9256 56.5122 16.2032 57.0456 15.6664L67.2079 3.64144C67.4635 3.25578 67.8123 2.94051 68.2221 2.72468C68.632 2.50886 69.0896 2.39942 69.553 2.40645C69.7975 2.39934 70.041 2.44106 70.2692 2.52919C70.4973 2.61733 70.7055 2.75008 70.8815 2.91964C71.0575 3.08919 71.1978 3.29214 71.2941 3.51655C71.3903 3.74097 71.4407 3.98233 71.4421 4.22644V16.3814H73.1359C73.5505 16.3814 73.9482 16.5458 74.2414 16.8384C74.5346 17.1309 74.6993 17.5277 74.6993 17.9414C74.6993 18.3552 74.5346 18.752 74.2414 19.0445C73.9482 19.3371 73.5505 19.5014 73.1359 19.5014H71.4421V22.6864C71.4421 23.1691 71.25 23.6321 70.9079 23.9734C70.5658 24.3147 70.1019 24.5064 69.6181 24.5064C69.1344 24.5064 68.6704 24.3147 68.3284 23.9734C67.9863 23.6321 67.7941 23.1691 67.7941 22.6864V19.5014ZM67.7941 16.3814V7.80144L60.6936 16.3814H67.7941Z" fill="#404041"/>
<path d="M77.0444 4.68145C77.0391 4.43245 77.0843 4.18493 77.1774 3.95383C77.2704 3.72273 77.4094 3.51281 77.5859 3.3367C77.7624 3.16059 77.9728 3.02195 78.2044 2.9291C78.436 2.83625 78.684 2.79111 78.9336 2.79643H85.5782C90.6593 2.79643 93.7862 5.65644 93.7862 10.0114V10.0764C93.7862 14.9514 89.8776 17.4864 85.1221 17.4864H80.8227V22.6864C80.8227 23.1864 80.6237 23.6658 80.2694 24.0193C79.9151 24.3728 79.4346 24.5714 78.9336 24.5714C78.684 24.5768 78.436 24.5316 78.2044 24.4388C77.9728 24.3459 77.7624 24.2073 77.5859 24.0312C77.4094 23.8551 77.2704 23.6451 77.1774 23.414C77.0843 23.1829 77.0391 22.9354 77.0444 22.6864V4.68145ZM85.3176 13.9764C88.1839 13.9764 90.0079 12.3514 90.0079 10.1414V10.0764C90.0079 7.54144 88.1839 6.24144 85.3176 6.24144H80.8879V14.0414H85.3176V13.9764Z" fill="#404041"/>
<path d="M102.776 24.7664C101.658 24.8003 100.544 24.6044 99.505 24.1909C98.4658 23.7773 97.5229 23.155 96.7348 22.3626C95.9468 21.5702 95.3304 20.6246 94.924 19.5845C94.5176 18.5444 94.3299 17.432 94.3724 16.3164V16.2514C94.3724 11.5714 97.6947 7.73643 102.385 7.73643C107.596 7.73643 110.137 12.0264 110.137 15.7964C110.145 16.032 110.105 16.2668 110.02 16.4868C109.935 16.7068 109.807 16.9076 109.643 17.0773C109.479 17.247 109.283 17.3821 109.065 17.4747C108.848 17.5673 108.614 17.6155 108.378 17.6164H98.1507C98.2491 18.7776 98.7907 19.8566 99.6635 20.6308C100.536 21.405 101.674 21.8151 102.841 21.7764C104.252 21.7713 105.615 21.2643 106.684 20.3464C106.908 20.1715 107.177 20.0622 107.459 20.0308C107.742 19.9994 108.027 20.047 108.284 20.1685C108.541 20.2899 108.759 20.4804 108.914 20.7184C109.069 20.9565 109.154 21.2328 109.16 21.5164C109.157 21.7365 109.109 21.9537 109.02 22.1548C108.93 22.3559 108.8 22.5368 108.639 22.6864C107.011 24.0824 104.921 24.8239 102.776 24.7664ZM106.489 15.0814C106.228 12.6764 104.795 10.7914 102.32 10.7914C100.04 10.7914 98.4113 12.5464 98.0856 15.0814H106.489Z" fill="#404041"/>
<path d="M112.938 19.8914V11.3114H112.287C111.855 11.3114 111.441 11.1402 111.135 10.8355C110.83 10.5307 110.658 10.1174 110.658 9.68643C110.658 9.25545 110.83 8.84213 111.135 8.53739C111.441 8.23264 111.855 8.06143 112.287 8.06143H112.938V5.26644C112.938 4.76651 113.137 4.28704 113.491 3.93353C113.846 3.58003 114.326 3.38144 114.827 3.38144C115.328 3.38144 115.809 3.58003 116.163 3.93353C116.517 4.28704 116.716 4.76651 116.716 5.26644V8.06143H119.648C120.08 8.06143 120.494 8.23264 120.799 8.53739C121.105 8.84213 121.276 9.25545 121.276 9.68643C121.276 10.1174 121.105 10.5307 120.799 10.8355C120.494 11.1402 120.08 11.3114 119.648 11.3114H116.716V19.3064C116.716 20.7364 117.433 21.3214 118.736 21.3214C119.192 21.3214 119.518 21.2564 119.648 21.2564C119.854 21.2537 120.058 21.2922 120.249 21.3697C120.44 21.4471 120.614 21.5619 120.759 21.7073C120.905 21.8527 121.02 22.0258 121.098 22.2163C121.175 22.4068 121.214 22.6108 121.211 22.8164C121.205 23.1237 121.109 23.4226 120.936 23.6765C120.762 23.9304 120.519 24.1285 120.234 24.2464C119.419 24.5402 118.56 24.694 117.694 24.7014C114.892 24.6364 112.938 23.4664 112.938 19.8914Z" fill="#404041"/>
<path d="M31.4443 14.6914C31.2113 15.0085 31.057 15.3762 30.994 15.7644C30.931 16.1525 30.9611 16.55 31.0819 16.9242C31.2027 17.2985 31.4107 17.6388 31.6889 17.9174C31.967 18.1959 32.3074 18.4046 32.682 18.5264C33.3776 18.7658 34.1364 18.7464 34.8187 18.4716C35.5011 18.1969 36.0609 17.6855 36.3952 17.0314C36.6801 16.5468 36.7903 15.9794 36.7073 15.4237C36.6244 14.8679 36.3533 14.3572 35.9392 13.9764C35.6083 13.7002 35.2219 13.4981 34.8061 13.3836C34.3902 13.2691 33.9546 13.2449 33.5286 13.3126C33.1026 13.3804 32.6961 13.5386 32.3365 13.7764C31.977 14.0143 31.6727 14.3263 31.4443 14.6914Z" fill="#BF0D3E"/>
<path d="M16.9826 3.64144C16.7525 3.99769 16.5967 4.39657 16.5245 4.81425C16.4523 5.23193 16.4653 5.65982 16.5626 6.0724C16.6599 6.48497 16.8395 6.87374 17.0908 7.21549C17.342 7.55724 17.6597 7.84495 18.0249 8.06143C18.4422 8.24374 18.8978 8.32128 19.3521 8.28729C19.8063 8.2533 20.2453 8.10881 20.6306 7.86644C21.0737 7.50574 21.4063 7.02811 21.5906 6.48799C21.7748 5.94786 21.8034 5.36695 21.6729 4.81143C21.5849 4.26071 21.3328 3.74918 20.9493 3.34342C20.5659 2.93766 20.069 2.65646 19.5232 2.53643C19.0372 2.43654 18.5321 2.48912 18.0773 2.68695C17.6224 2.88479 17.2401 3.2182 16.9826 3.64144Z" fill="#BF0D3E"/>
<path d="M35.5483 9.88144C35.6491 9.73815 35.7364 9.58582 35.8089 9.42643C36.0838 8.92057 36.2112 8.34798 36.1767 7.77356C36.1421 7.19914 35.947 6.64586 35.6135 6.17643C35.2876 5.72538 34.8358 5.38006 34.3145 5.18356C33.7932 4.98705 33.2254 4.94804 32.682 5.07142C31.8981 5.23194 31.1831 5.63043 30.635 6.21225C30.0868 6.79408 29.7324 7.53077 29.6203 8.32142C29.5675 8.72457 29.6027 9.13435 29.7235 9.52265C29.8443 9.91096 30.0477 10.2686 30.32 10.5711C30.5922 10.8736 30.9268 11.1138 31.3007 11.2753C31.6747 11.4367 32.0792 11.5156 32.4866 11.5064C33.0932 11.5169 33.6924 11.3732 34.228 11.0889C34.7636 10.8047 35.218 10.3891 35.5483 9.88144Z" fill="#BF0D3E"/>
<path d="M28.8386 5.72142C29.2685 5.02184 29.4305 4.19078 29.2946 3.38143C29.2372 2.82846 29.0314 2.30116 28.699 1.85504C28.3665 1.40892 27.9197 1.06048 27.4055 0.846417C26.902 0.64885 26.3525 0.59896 25.8216 0.702603C25.2907 0.806246 24.8006 1.05912 24.4089 1.43143C23.8619 1.86038 23.453 2.44006 23.233 3.09865C23.013 3.75723 22.9915 4.46576 23.1712 5.13642C23.2553 5.60678 23.4622 6.0467 23.771 6.41186C24.0797 6.77703 24.4795 7.05454 24.93 7.21643C26.298 7.80143 27.8615 7.28142 28.8386 5.72142Z" fill="#BF0D3E"/>
<path d="M28.3826 22.2964C28.0265 22.7711 27.5224 23.1141 26.9495 23.2714C26.6489 23.3696 26.3309 23.4029 26.0165 23.3693C25.7021 23.3357 25.3983 23.2359 25.1255 23.0764C24.5134 22.7373 23.9628 22.2979 23.4969 21.7764C22.8118 21.0197 22.1805 20.216 21.6077 19.3714C21.3724 19.0066 21.0614 18.6963 20.6957 18.4614C20.3538 18.2645 19.9784 18.1323 19.5883 18.0714C18.8717 17.8764 18.1552 17.6164 17.4386 17.3564C16.7104 17.0698 16.0296 16.6754 15.4192 16.1864C14.8919 15.8404 14.5186 15.305 14.3769 14.6914C14.2758 14.2065 14.3448 13.7016 14.5723 13.2614C14.8839 12.6485 15.3568 12.1317 15.9403 11.7664C16.5435 11.3013 17.1994 10.9086 17.8946 10.5964C19.3885 9.85781 20.9959 9.37445 22.65 9.16643C23.3216 9.10143 23.9979 9.10143 24.6695 9.16643C25.2393 9.24048 25.791 9.41663 26.298 9.68642C27.2563 10.1336 28.0363 10.889 28.5129 11.8314C28.9816 12.7475 29.2901 13.7367 29.4249 14.7564C29.5657 15.6374 29.6094 16.531 29.5552 17.4214C29.5082 18.6803 29.289 19.9268 28.9037 21.1264C28.8599 21.562 28.6773 21.9721 28.3826 22.2964Z" fill="#BF0D3E"/>
<path d="M207.591 21.5816C207.586 21.2146 207.654 20.8503 207.791 20.5095C207.928 20.1688 208.131 19.8583 208.388 19.5957C208.645 19.3332 208.951 19.1237 209.29 18.9793C209.628 18.8349 209.991 18.7584 210.359 18.7541C210.727 18.7498 211.092 18.8179 211.434 18.9544C211.775 19.0909 212.086 19.2932 212.349 19.5498C212.612 19.8063 212.822 20.112 212.967 20.4495C213.112 20.7869 213.189 21.1495 213.193 21.5166V21.5166C213.201 22.2663 212.91 22.9885 212.385 23.5248C211.86 24.061 211.143 24.3673 210.392 24.3766C210.022 24.3848 209.654 24.3182 209.31 24.1807C208.966 24.0431 208.654 23.8376 208.393 23.5763C208.131 23.3151 207.925 23.0037 207.787 22.6609C207.649 22.318 207.582 21.9509 207.591 21.5816V21.5816ZM212.932 21.5816C212.932 20.9265 212.671 20.2983 212.207 19.835C211.743 19.3718 211.113 19.1116 210.457 19.1116C209.8 19.1116 209.171 19.3718 208.706 19.835C208.242 20.2983 207.981 20.9265 207.981 21.5816C207.974 21.9109 208.033 22.2383 208.154 22.5448C208.276 22.8512 208.457 23.1305 208.687 23.3664C208.917 23.6023 209.193 23.7902 209.496 23.919C209.8 24.0478 210.127 24.1149 210.457 24.1166C211.12 24.1021 211.751 23.8283 212.214 23.3542C212.677 22.8801 212.935 22.2436 212.932 21.5816V21.5816ZM209.284 20.3466C209.289 20.2791 209.318 20.2156 209.366 20.1678C209.414 20.12 209.477 20.0911 209.545 20.0866H210.587C211.239 20.0866 211.695 20.4116 211.695 20.9966C211.693 21.1966 211.629 21.3913 211.513 21.554C211.396 21.7168 211.232 21.8399 211.043 21.9066L211.564 22.5566C211.589 22.5822 211.608 22.613 211.619 22.6467C211.63 22.6805 211.634 22.7163 211.629 22.7516C211.625 22.819 211.596 22.8825 211.548 22.9304C211.5 22.9782 211.436 23.007 211.369 23.0116C211.318 23.0106 211.269 22.9984 211.224 22.976C211.179 22.9535 211.139 22.9212 211.108 22.8816L210.392 21.9716H209.805V22.7516C209.805 22.8205 209.778 22.8867 209.729 22.9354C209.68 22.9842 209.614 23.0116 209.545 23.0116C209.476 23.0116 209.409 22.9842 209.361 22.9354C209.312 22.8867 209.284 22.8205 209.284 22.7516V20.3466V20.3466ZM210.587 21.5166C210.978 21.5166 211.173 21.3216 211.173 21.0616C211.173 20.7366 210.978 20.6066 210.587 20.6066H209.871V21.5166H210.587Z" fill="#404041"/>
</svg>
