<svg width="29" height="21" viewBox="0 0 29 21" fill="none" xmlns="http://www.w3.org/2000/svg">
<path d="M2.69453 1.47766H26.306C26.6275 1.47766 26.9358 1.60417 27.1631 1.82936C27.3904 2.05455 27.5181 2.35998 27.5181 2.67845V18.3226C27.5181 18.6408 27.3905 18.946 27.1634 19.171C26.9363 19.396 26.6282 19.5224 26.307 19.5224H2.69453C2.53535 19.5224 2.37774 19.4913 2.23068 19.431C2.08362 19.3706 1.94999 19.2822 1.83744 19.1707C1.72489 19.0592 1.6356 18.9268 1.57469 18.7811C1.51377 18.6354 1.48242 18.4793 1.48242 18.3216L1.48242 2.67845C1.48242 2.35998 1.61013 2.05455 1.83744 1.82936C2.06475 1.60417 2.37306 1.47766 2.69453 1.47766V1.47766Z" fill="white"/>
<path d="M2.69425 1H26.3058C26.7551 1 27.186 1.17683 27.5038 1.4916C27.8215 1.80636 28 2.23328 28 2.67842V18.3225C28 18.7674 27.8216 19.1941 27.504 19.5087C27.1865 19.8233 26.7558 20 26.3067 20H2.69425C2.24491 20 1.81397 19.8232 1.49623 19.5084C1.1785 19.1936 1 18.7667 1 18.3216V2.67842C1 2.23328 1.1785 1.80636 1.49623 1.4916C1.81397 1.17683 2.24491 1 2.69425 1V1Z" stroke="#333F48" stroke-width="2" stroke-miterlimit="10"/>
<path d="M1.48242 18.3221C1.48255 18.6405 1.61029 18.9458 1.83758 19.171C2.06487 19.3962 2.3731 19.5227 2.69453 19.5228H26.306C26.6275 19.5227 26.9357 19.3962 27.163 19.171C27.3903 18.9458 27.518 18.6405 27.5181 18.3221V18.1262H1.48242V18.3221Z" fill="#BF0D3E"/>
<path d="M27.5181 15.3469H1.48242V16.7425H27.5181V15.3469Z" fill="#BF0D3E"/>
<path d="M27.5181 12.5679H1.48242V13.9612H27.5181V12.5679Z" fill="#BF0D3E"/>
<path d="M27.5181 9.78857H1.48242V11.1842H27.5181V9.78857Z" fill="#BF0D3E"/>
<path d="M27.5181 7.00922H1.48242V8.40536H27.5181V7.00922Z" fill="#BF0D3E"/>
<path d="M27.5181 4.2298H1.48242V5.62546H27.5181V4.2298Z" fill="#BF0D3E"/>
<path d="M27.5181 2.67749C27.5179 2.35919 27.3901 2.05401 27.1628 1.82902C26.9355 1.60404 26.6273 1.47766 26.306 1.47766H2.69453C2.37323 1.47766 2.06507 1.60404 1.83778 1.82902C1.61049 2.05401 1.48268 2.35919 1.48242 2.67749V2.87428H27.5181V2.67749Z" fill="#BF0D3E"/>
<path d="M15.0856 1.47766H2.69164C2.3708 1.47829 2.06331 1.60497 1.83662 1.8299C1.60993 2.05483 1.48255 2.35964 1.48242 2.67749V11.1895H15.0856V1.47766Z" fill="#333F48"/>
<path d="M2.39942 1.69592L2.5325 2.09189H2.94039L2.61108 2.33739L2.73403 2.73861L2.39942 2.4931L2.06915 2.73861L2.19789 2.33739L1.86328 2.09189H2.27117L2.39942 1.69592Z" fill="#EDEDEE"/>
<path d="M4.63829 1.69592L4.76654 2.09189H5.17925L4.84995 2.33739L4.9782 2.73861L4.6407 2.4931L4.31573 2.73861L4.44398 2.33739L4.10938 2.09189H4.51775L4.63829 1.69592Z" fill="#EDEDEE"/>
<path d="M6.98628 1.69592L7.1097 2.09189H7.5176L7.18733 2.33739L7.31558 2.73861L6.98628 2.4931L6.65167 2.73861L6.77462 2.33739L6.44531 2.09189H6.85803L6.98628 1.69592Z" fill="#EDEDEE"/>
<path d="M9.32325 1.69592L9.45198 2.09189H9.85988L9.52527 2.33739L9.65352 2.73861L9.32325 2.4931L8.98864 2.73861L9.11159 2.33739L8.78711 2.09189H9.19741L9.32325 1.69592Z" fill="#EDEDEE"/>
<path d="M11.661 1.69592L11.784 2.09189H12.203L11.8655 2.33739L11.9889 2.73861L11.6586 2.4931L11.324 2.73861L11.4523 2.33739L11.1172 2.09189H11.5309L11.661 1.69592Z" fill="#EDEDEE"/>
<path d="M3.47745 2.78589L3.60088 3.18472H4.01408L3.67947 3.43022L3.80772 3.83144L3.47745 3.58593L3.14285 3.83144L3.2711 3.43022L2.93359 3.18472H3.3521L3.47745 2.78589Z" fill="#EDEDEE"/>
<path d="M5.71528 2.78589L5.84401 3.18472H6.25238L5.92211 3.43022L6.0494 3.83144L5.71479 3.58593L5.38019 3.83144L5.50844 3.43022L5.17383 3.18472H5.58751L5.71528 2.78589Z" fill="#EDEDEE"/>
<path d="M8.05365 2.78589L8.18142 3.18472H8.59461L8.26001 3.43022L8.38825 3.83144L8.05365 3.58593L7.71615 3.83144L7.84922 3.43022L7.51172 3.18472H7.92492L8.05365 2.78589Z" fill="#EDEDEE"/>
<path d="M10.3911 2.78589L10.5194 3.18472H10.9331L10.5985 3.43022L10.7262 3.83144L10.3916 3.58593L10.0623 3.83144L10.1901 3.43022L9.85547 3.18472H10.2638L10.3911 2.78589Z" fill="#EDEDEE"/>
<path d="M12.7339 2.78589L12.8568 3.18472H13.2705L12.9412 3.43022L13.0642 3.83144L12.7344 3.58593L12.3998 3.83144L12.5275 3.43022L12.1973 3.18472H12.6061L12.7339 2.78589Z" fill="#EDEDEE"/>
<path d="M3.47745 4.7738L3.60088 5.16977H4.01408L3.67947 5.41766L3.80772 5.81601L3.47745 5.57098L3.14285 5.81601L3.2711 5.41766L2.93359 5.16977H3.3521L3.47745 4.7738Z" fill="#EDEDEE"/>
<path d="M5.71528 4.7738L5.84401 5.16977H6.25238L5.92211 5.41766L6.0494 5.81601L5.71479 5.57098L5.38019 5.81601L5.50844 5.41766L5.17383 5.16977H5.58751L5.71528 4.7738Z" fill="#EDEDEE"/>
<path d="M8.05365 4.7738L8.18142 5.16977H8.59461L8.26001 5.41766L8.38825 5.81601L8.05365 5.57098L7.71615 5.81601L7.84922 5.41766L7.51172 5.16977H7.92492L8.05365 4.7738Z" fill="#EDEDEE"/>
<path d="M10.3911 4.7738L10.5194 5.16977H10.9331L10.5985 5.41766L10.7262 5.81601L10.3916 5.57098L10.0623 5.81601L10.1901 5.41766L9.85547 5.16977H10.2638L10.3911 4.7738Z" fill="#EDEDEE"/>
<path d="M12.7339 4.7738L12.8568 5.16977H13.2705L12.9412 5.41766L13.0642 5.81601L12.7344 5.57098L12.3998 5.81601L12.5275 5.41766L12.1973 5.16977H12.6061L12.7339 4.7738Z" fill="#EDEDEE"/>
<path d="M3.47644 6.75842L3.59987 7.15725H4.01306L3.67846 7.40515L3.80671 7.79872L3.47644 7.55083L3.14183 7.79872L3.27008 7.40515L2.92969 7.15677H3.34819L3.47644 6.75842Z" fill="#EDEDEE"/>
<path d="M5.71479 6.75842L5.84352 7.15725H6.2519L5.92163 7.40515L6.04892 7.79872L5.71431 7.55083L5.3797 7.79872L5.50795 7.40515L5.17383 7.15677H5.58751L5.71479 6.75842Z" fill="#EDEDEE"/>
<path d="M8.05365 6.75842L8.18142 7.15725H8.59461L8.26001 7.40515L8.38825 7.79872L8.05365 7.55083L7.71615 7.79872L7.84922 7.40515L7.51172 7.15725H7.92492L8.05365 6.75842Z" fill="#EDEDEE"/>
<path d="M10.3916 6.75842L10.5199 7.15725H10.9335L10.5989 7.40515L10.7267 7.79872L10.3921 7.55083L10.0628 7.79872L10.1906 7.40515L9.85547 7.15677H10.2638L10.3916 6.75842Z" fill="#EDEDEE"/>
<path d="M12.7339 6.75842L12.8568 7.15725H13.2705L12.9412 7.40515L13.0642 7.79872L12.7344 7.55083L12.3998 7.79872L12.5275 7.40515L12.1973 7.15677H12.6061L12.7339 6.75842Z" fill="#EDEDEE"/>
<path d="M3.47745 8.74298L3.60088 9.13847H4.01408L3.67947 9.38732L3.80772 9.78567L3.47745 9.54016L3.14285 9.78567L3.2711 9.38732L2.93359 9.13847H3.3521L3.47745 8.74298Z" fill="#EDEDEE"/>
<path d="M5.71528 8.74298L5.84401 9.13847H6.25238L5.92211 9.38732L6.0494 9.78567L5.71479 9.54016L5.38019 9.78567L5.50844 9.38732L5.17383 9.13847H5.58751L5.71528 8.74298Z" fill="#EDEDEE"/>
<path d="M8.05365 8.74298L8.18142 9.13847H8.59461L8.26001 9.38732L8.38825 9.78567L8.05365 9.54016L7.71615 9.78567L7.84922 9.38732L7.51172 9.13847H7.92492L8.05365 8.74298Z" fill="#EDEDEE"/>
<path d="M10.3911 8.74298L10.5194 9.13847H10.9331L10.5985 9.38732L10.7262 9.78567L10.3916 9.54016L10.0623 9.78567L10.1901 9.38732L9.85547 9.13847H10.2638L10.3911 8.74298Z" fill="#EDEDEE"/>
<path d="M12.7339 8.74298L12.8568 9.13847H13.2705L12.9412 9.38732L13.0642 9.78567L12.7344 9.54016L12.3998 9.78567L12.5275 9.38732L12.1973 9.13847H12.6061L12.7339 8.74298Z" fill="#EDEDEE"/>
<path d="M13.999 1.69592L14.1268 2.09189H14.5352L14.2049 2.33739L14.3336 2.73861L13.9986 2.4931L13.6639 2.73861L13.7922 2.33739L13.4629 2.09189H13.8708L13.999 1.69592Z" fill="#EDEDEE"/>
<path d="M2.39942 3.68054L2.5325 4.08176H2.94039L2.61108 4.32488L2.73403 4.72371L2.39942 4.4782L2.06915 4.72371L2.19789 4.32488L1.86328 4.08176H2.27117L2.39942 3.68054Z" fill="#EDEDEE"/>
<path d="M4.63829 3.68054L4.76654 4.08176H5.17925L4.84995 4.32488L4.9782 4.72371L4.6407 4.4782L4.31573 4.72371L4.44398 4.32488L4.10938 4.08176H4.51775L4.63829 3.68054Z" fill="#EDEDEE"/>
<path d="M6.98628 3.68054L7.1097 4.08176H7.5176L7.18733 4.32488L7.31558 4.72371L6.98628 4.4782L6.65167 4.72371L6.77462 4.32488L6.44531 4.08176H6.85803L6.98628 3.68054Z" fill="#EDEDEE"/>
<path d="M9.32325 3.68054L9.45198 4.08176H9.85988L9.52527 4.32488L9.65352 4.72371L9.32325 4.4782L8.98864 4.72371L9.11159 4.32488L8.78711 4.08176H9.19741L9.32325 3.68054Z" fill="#EDEDEE"/>
<path d="M11.661 3.68054L11.784 4.08176H12.203L11.8655 4.32488L11.9889 4.72371L11.6586 4.4782L11.324 4.72371L11.4523 4.32488L11.1172 4.08176H11.5309L11.661 3.68054Z" fill="#EDEDEE"/>
<path d="M13.999 3.68054L14.1268 4.08176H14.5352L14.2049 4.32488L14.3336 4.72371L13.9986 4.4782L13.6639 4.72371L13.7922 4.32488L13.4629 4.08176H13.8708L13.999 3.68054Z" fill="#EDEDEE"/>
<path d="M2.39942 5.6651L2.5325 6.06202H2.94039L2.61108 6.31039L2.73403 6.70826L2.39942 6.46037L2.06915 6.70826L2.19789 6.31039L1.86328 6.06202H2.27117L2.39942 5.6651Z" fill="#EDEDEE"/>
<path d="M4.63829 5.6651L4.76654 6.06202H5.17925L4.84995 6.31039L4.9782 6.70826L4.6407 6.46037L4.31573 6.70826L4.44398 6.31039L4.10938 6.06202H4.51775L4.63829 5.6651Z" fill="#EDEDEE"/>
<path d="M6.98628 5.6651L7.1097 6.06202H7.5176L7.18733 6.31039L7.31558 6.70826L6.98628 6.46037L6.65167 6.70826L6.77462 6.31039L6.44531 6.06202H6.85803L6.98628 5.6651Z" fill="#EDEDEE"/>
<path d="M9.32325 5.6651L9.45198 6.06202H9.85988L9.52527 6.31039L9.65352 6.70826L9.32325 6.46037L8.98864 6.70826L9.11159 6.31039L8.78711 6.06202H9.19741L9.32325 5.6651Z" fill="#EDEDEE"/>
<path d="M11.661 5.6651L11.784 6.06202H12.203L11.8655 6.31039L11.9889 6.70826L11.6586 6.46037L11.324 6.70826L11.4523 6.31039L11.1172 6.06202H11.5309L11.661 5.6651Z" fill="#EDEDEE"/>
<path d="M13.999 5.6651L14.1268 6.06202H14.5352L14.2049 6.31039L14.3336 6.70826L13.9986 6.46037L13.6639 6.70826L13.7922 6.31039L13.4629 6.06202H13.8708L13.999 5.6651Z" fill="#EDEDEE"/>
<path d="M2.39942 7.65302L2.5325 8.05184H2.94039L2.61108 8.29448L2.73403 8.69283L2.39942 8.44637L2.06915 8.6914L2.19789 8.29305L1.86328 8.05041H2.27117L2.39942 7.65302Z" fill="#EDEDEE"/>
<path d="M4.63829 7.65302L4.76654 8.05184H5.17925L4.84995 8.29448L4.9782 8.69283L4.6407 8.44781L4.31573 8.69283L4.44398 8.29448L4.10938 8.05184H4.51775L4.63829 7.65302Z" fill="#EDEDEE"/>
<path d="M6.98628 7.65302L7.1097 8.05184H7.5176L7.18733 8.29448L7.31558 8.69283L6.98628 8.44781L6.65167 8.69283L6.77462 8.29448L6.44531 8.05184H6.85803L6.98628 7.65302Z" fill="#EDEDEE"/>
<path d="M9.32325 7.65302L9.45198 8.05184H9.85988L9.52527 8.29448L9.65352 8.69283L9.32325 8.44781L8.98864 8.69283L9.11159 8.29448L8.78711 8.05184H9.19741L9.32325 7.65302Z" fill="#EDEDEE"/>
<path d="M11.661 7.65302L11.784 8.05184H12.203L11.8655 8.29448L11.9889 8.69283L11.6586 8.44781L11.324 8.69283L11.4523 8.29448L11.1172 8.05184H11.5309L11.661 7.65302Z" fill="#EDEDEE"/>
<path d="M13.999 7.65302L14.1268 8.05184H14.5352L14.2049 8.29448L14.3336 8.69283L13.9986 8.44781L13.6639 8.69283L13.7922 8.29448L13.4629 8.05184H13.8708L13.999 7.65302Z" fill="#EDEDEE"/>
<path d="M2.39942 9.6333L2.5325 10.0364H2.94039L2.61108 10.28L2.73403 10.6784L2.39942 10.4324L2.06915 10.6784L2.19789 10.28L1.86328 10.0364H2.27117L2.39942 9.6333Z" fill="#EDEDEE"/>
<path d="M4.63829 9.6333L4.76654 10.0364H5.17925L4.84995 10.28L4.9782 10.6784L4.6407 10.4324L4.31573 10.6784L4.44398 10.28L4.10938 10.0364H4.51775L4.63829 9.6333Z" fill="#EDEDEE"/>
<path d="M6.98628 9.6333L7.1097 10.0364H7.5176L7.18733 10.28L7.31558 10.6784L6.98628 10.4324L6.65167 10.6784L6.77462 10.28L6.44531 10.0364H6.85803L6.98628 9.6333Z" fill="#EDEDEE"/>
<path d="M9.32325 9.6333L9.45198 10.0364H9.85988L9.52527 10.28L9.65352 10.6784L9.32325 10.4324L8.98864 10.6784L9.11159 10.28L8.78711 10.0364H9.19741L9.32325 9.6333Z" fill="#EDEDEE"/>
<path d="M11.661 9.6333L11.784 10.0364H12.203L11.8655 10.28L11.9889 10.6784L11.6586 10.4324L11.324 10.6784L11.4523 10.28L11.1172 10.0364H11.5309L11.661 9.6333Z" fill="#EDEDEE"/>
<path d="M13.999 9.6333L14.1268 10.0364H14.5352L14.2049 10.28L14.3336 10.6784L13.9986 10.4324L13.6639 10.6784L13.7922 10.28L13.4629 10.0364H13.8708L13.999 9.6333Z" fill="#EDEDEE"/>
</svg>
