<svg width="29" height="21" viewBox="0 0 58 43" fill="none" xmlns="http://www.w3.org/2000/svg">
<path d="M4.515 2.89697H53.487C54.1535 2.89697 54.7927 3.16173 55.264 3.63301C55.7352 4.10429 56 4.74348 56 5.40997V38.166C56 38.8325 55.7352 39.4717 55.264 39.9429C54.7927 40.4142 54.1535 40.679 53.487 40.679H4.512C3.84578 40.679 3.20684 40.4143 2.73575 39.9432C2.26466 39.4721 2 38.8332 2 38.167V5.41197C2 4.74495 2.26497 4.10525 2.73663 3.6336C3.20828 3.16195 3.84798 2.89697 4.515 2.89697V2.89697Z" fill="white"/>
<path d="M4.515 1.89697H53.487C54.4187 1.89697 55.3123 2.26709 55.9711 2.92591C56.6299 3.58472 57 4.47827 57 5.40997V38.166C57 39.0977 56.6299 39.9912 55.9711 40.65C55.3123 41.3089 54.4187 41.679 53.487 41.679H4.512C3.58056 41.679 2.68727 41.309 2.02864 40.6503C1.37001 39.9917 1 39.0984 1 38.167V5.41197C1 4.47974 1.37033 3.58568 2.02952 2.92649C2.68871 2.2673 3.58276 1.89697 4.515 1.89697V1.89697Z" stroke="#333F48" stroke-width="2" stroke-miterlimit="10"/>
<path d="M4.513 2.89697C4.1829 2.89697 3.85604 2.96201 3.55109 3.08836C3.24613 3.21471 2.96905 3.39991 2.73569 3.63337C2.50232 3.86683 2.31724 4.14398 2.191 4.44898C2.06477 4.75399 1.99987 5.08088 2 5.41097V38.165C2 38.8316 2.26473 39.4708 2.73598 39.9423C3.20723 40.4137 3.84642 40.6787 4.513 40.679H15.774V2.89697H4.513Z" fill="#BF0D3E"/>
<path d="M56.0001 38.165V5.41097C56.0002 5.08096 55.9353 4.75415 55.8092 4.44921C55.683 4.14427 55.498 3.86717 55.2647 3.63372C55.0315 3.40027 54.7545 3.21506 54.4497 3.08865C54.1448 2.96223 53.8181 2.8971 53.4881 2.89697H42.2261V40.679H53.4881C54.1545 40.6784 54.7934 40.4133 55.2644 39.9419C55.7355 39.4705 56.0001 38.8314 56.0001 38.165Z" fill="#BF0D3E"/>
<path d="M38.5668 22.388C38.5668 22.388 35.8378 22.654 38.1268 18.335C38.1268 18.335 34.3398 19.745 34.3378 17.101C34.3378 17.101 29.0518 25.386 32.4878 13.842L30.3738 14.985L28.4318 11.108L26.4998 14.981L24.3858 13.836C27.8218 25.38 22.5308 17.097 22.5308 17.097C22.5308 19.743 18.7428 18.33 18.7428 18.33C21.0328 22.653 18.2998 22.388 18.2998 22.388C26.3188 26.443 22.7078 28.821 22.7078 28.821L28.0808 27.676L27.7248 33.051L28.4348 33.139L29.1348 33.05L28.7838 27.677L34.1598 28.82C34.1598 28.82 30.5478 26.44 38.5668 22.388Z" fill="#BF0D3E"/>
</svg>
